{
    "asset" : {
        "generator" : "Khronos glTF Blender I/O v1.5.17",
        "version" : "2.0"
    },
    "scene" : 0,
    "scenes" : [
        {
            "name" : "Scene",
            "nodes" : [
                0,
                1,
                2,
                3,
                4,
                5,
                6,
                7,
                8,
                9,
                10,
                11
            ]
        }
    ],
    "nodes" : [
        {
            "name" : "Light",
            "rotation" : [
                0.16907575726509094,
                0.7558803558349609,
                -0.27217137813568115,
                0.570947527885437
            ],
            "scale" : [
                4.524265766143799,
                4.524265766143799,
                4.524266242980957
            ],
            "translation" : [
                17.13603973388672,
                30.54020881652832,
                -26.70854949951172
            ]
        },
        {
            "name" : "Camera",
            "rotation" : [
                0.483536034822464,
                0.33687159419059753,
                -0.20870360732078552,
                0.7804827094078064
            ],
            "translation" : [
                7.358891487121582,
                4.958309173583984,
                6.925790786743164
            ]
        },
        {
            "mesh" : 0,
            "name" : "Curve",
            "rotation" : [
                0.7049831748008728,
                0,
                0,
                0.7092240452766418
            ],
            "scale" : [
                142.39759826660156,
                142.39761352539062,
                142.39761352539062
            ],
            "translation" : [
                -1.3059792518615723,
                -2.3275442123413086,
                2.0355234146118164
            ]
        },
        {
            "mesh" : 1,
            "name" : "Curve.001",
            "rotation" : [
                0.7049831748008728,
                0,
                0,
                0.7092240452766418
            ],
            "scale" : [
                142.39759826660156,
                142.39761352539062,
                142.39761352539062
            ],
            "translation" : [
                -1.3059792518615723,
                -2.3275442123413086,
                2.0355234146118164
            ]
        },
        {
            "mesh" : 2,
            "name" : "Curve.002",
            "rotation" : [
                0.7049831748008728,
                0,
                0,
                0.7092240452766418
            ],
            "scale" : [
                142.39759826660156,
                142.39761352539062,
                142.39761352539062
            ],
            "translation" : [
                -1.3059792518615723,
                -2.3275442123413086,
                2.0355234146118164
            ]
        },
        {
            "mesh" : 3,
            "name" : "Curve.003",
            "rotation" : [
                0.7049831748008728,
                0,
                0,
                0.7092240452766418
            ],
            "scale" : [
                142.39759826660156,
                142.39761352539062,
                142.39761352539062
            ],
            "translation" : [
                -1.3059792518615723,
                -2.3275442123413086,
                2.0355234146118164
            ]
        },
        {
            "mesh" : 4,
            "name" : "Curve.004",
            "rotation" : [
                0.7049831748008728,
                0,
                0,
                0.7092240452766418
            ],
            "scale" : [
                142.39759826660156,
                142.39761352539062,
                142.39761352539062
            ],
            "translation" : [
                -1.3059792518615723,
                -2.3275442123413086,
                2.0355234146118164
            ]
        },
        {
            "mesh" : 5,
            "name" : "Curve.005",
            "rotation" : [
                0.7049831748008728,
                0,
                0,
                0.7092240452766418
            ],
            "scale" : [
                142.39759826660156,
                142.39761352539062,
                142.39761352539062
            ],
            "translation" : [
                -1.3059792518615723,
                -2.3275442123413086,
                2.0355234146118164
            ]
        },
        {
            "mesh" : 6,
            "name" : "Curve.006",
            "rotation" : [
                0.7049831748008728,
                0,
                0,
                0.7092240452766418
            ],
            "scale" : [
                142.39759826660156,
                142.39761352539062,
                142.39761352539062
            ],
            "translation" : [
                -1.3059792518615723,
                -2.3275442123413086,
                2.0355234146118164
            ]
        },
        {
            "mesh" : 7,
            "name" : "Curve.007",
            "rotation" : [
                0.7049831748008728,
                0,
                0,
                0.7092240452766418
            ],
            "scale" : [
                142.39759826660156,
                142.39761352539062,
                142.39761352539062
            ],
            "translation" : [
                -1.3059792518615723,
                -2.3275442123413086,
                2.0355234146118164
            ]
        },
        {
            "mesh" : 8,
            "name" : "Curve.008",
            "rotation" : [
                0.7049831748008728,
                0,
                0,
                0.7092240452766418
            ],
            "scale" : [
                142.39759826660156,
                142.39761352539062,
                142.39761352539062
            ],
            "translation" : [
                -1.3059792518615723,
                -2.3275442123413086,
                2.0355234146118164
            ]
        },
        {
            "mesh" : 9,
            "name" : "Curve.009",
            "rotation" : [
                0.7049831748008728,
                0,
                0,
                0.7092240452766418
            ],
            "scale" : [
                142.39759826660156,
                142.39761352539062,
                142.39761352539062
            ],
            "translation" : [
                -1.3059792518615723,
                -2.3275442123413086,
                2.0355234146118164
            ]
        }
    ],
    "materials" : [
        {
            "doubleSided" : true,
            "name" : "SVGMat",
            "pbrMetallicRoughness" : {
                "baseColorFactor" : [
                    0.013171670958399773,
                    0.5090660452842712,
                    1,
                    1
                ],
                "metallicFactor" : 0,
                "roughnessFactor" : 0.4000000059604645
            }
        }
    ],
    "meshes" : [
        {
            "name" : "Curve",
            "primitives" : [
                {
                    "attributes" : {
                        "POSITION" : 0,
                        "NORMAL" : 1,
                        "TEXCOORD_0" : 2
                    },
                    "indices" : 3,
                    "material" : 0
                }
            ]
        },
        {
            "name" : "Curve.001",
            "primitives" : [
                {
                    "attributes" : {
                        "POSITION" : 4,
                        "NORMAL" : 5,
                        "TEXCOORD_0" : 6
                    },
                    "indices" : 7,
                    "material" : 0
                }
            ]
        },
        {
            "name" : "Curve.002",
            "primitives" : [
                {
                    "attributes" : {
                        "POSITION" : 8,
                        "NORMAL" : 9,
                        "TEXCOORD_0" : 10
                    },
                    "indices" : 11,
                    "material" : 0
                }
            ]
        },
        {
            "name" : "Curve.003",
            "primitives" : [
                {
                    "attributes" : {
                        "POSITION" : 12,
                        "NORMAL" : 13,
                        "TEXCOORD_0" : 14
                    },
                    "indices" : 15,
                    "material" : 0
                }
            ]
        },
        {
            "name" : "Curve.004",
            "primitives" : [
                {
                    "attributes" : {
                        "POSITION" : 16,
                        "NORMAL" : 17,
                        "TEXCOORD_0" : 18
                    },
                    "indices" : 19,
                    "material" : 0
                }
            ]
        },
        {
            "name" : "Curve.005",
            "primitives" : [
                {
                    "attributes" : {
                        "POSITION" : 20,
                        "NORMAL" : 21,
                        "TEXCOORD_0" : 22
                    },
                    "indices" : 23,
                    "material" : 0
                }
            ]
        },
        {
            "name" : "Curve.006",
            "primitives" : [
                {
                    "attributes" : {
                        "POSITION" : 24,
                        "NORMAL" : 25,
                        "TEXCOORD_0" : 26
                    },
                    "indices" : 27,
                    "material" : 0
                }
            ]
        },
        {
            "name" : "Curve.007",
            "primitives" : [
                {
                    "attributes" : {
                        "POSITION" : 28,
                        "NORMAL" : 29,
                        "TEXCOORD_0" : 30
                    },
                    "indices" : 31,
                    "material" : 0
                }
            ]
        },
        {
            "name" : "Curve.008",
            "primitives" : [
                {
                    "attributes" : {
                        "POSITION" : 32,
                        "NORMAL" : 33,
                        "TEXCOORD_0" : 34
                    },
                    "indices" : 35,
                    "material" : 0
                }
            ]
        },
        {
            "name" : "Curve.009",
            "primitives" : [
                {
                    "attributes" : {
                        "POSITION" : 36,
                        "NORMAL" : 37,
                        "TEXCOORD_0" : 38
                    },
                    "indices" : 39,
                    "material" : 0
                }
            ]
        }
    ],
    "accessors" : [
        {
            "bufferView" : 0,
            "componentType" : 5126,
            "count" : 7102,
            "max" : [
                0.34209635853767395,
                0.004999999888241291,
                -0.15655028820037842
            ],
            "min" : [
                0.2720146179199219,
                -0.004999999888241291,
                -0.21548613905906677
            ],
            "type" : "VEC3"
        },
        {
            "bufferView" : 1,
            "componentType" : 5126,
            "count" : 7102,
            "type" : "VEC3"
        },
        {
            "bufferView" : 2,
            "componentType" : 5126,
            "count" : 7102,
            "type" : "VEC2"
        },
        {
            "bufferView" : 3,
            "componentType" : 5123,
            "count" : 31092,
            "type" : "SCALAR"
        },
        {
            "bufferView" : 4,
            "componentType" : 5126,
            "count" : 3314,
            "max" : [
                0.03785014897584915,
                0.004999999888241291,
                -0.15878044068813324
            ],
            "min" : [
                0.004206229001283646,
                -0.004999999888241291,
                -0.21340057253837585
            ],
            "type" : "VEC3"
        },
        {
            "bufferView" : 5,
            "componentType" : 5126,
            "count" : 3314,
            "type" : "VEC3"
        },
        {
            "bufferView" : 6,
            "componentType" : 5126,
            "count" : 3314,
            "type" : "VEC2"
        },
        {
            "bufferView" : 7,
            "componentType" : 5123,
            "count" : 14676,
            "type" : "SCALAR"
        },
        {
            "bufferView" : 8,
            "componentType" : 5126,
            "count" : 2382,
            "max" : [
                0.054244767874479294,
                0.004999999888241291,
                -0.1588359773159027
            ],
            "min" : [
                0.04036242142319679,
                -0.004999999888241291,
                -0.21334412693977356
            ],
            "type" : "VEC3"
        },
        {
            "bufferView" : 9,
            "componentType" : 5126,
            "count" : 2382,
            "type" : "VEC3"
        },
        {
            "bufferView" : 10,
            "componentType" : 5126,
            "count" : 2382,
            "type" : "VEC2"
        },
        {
            "bufferView" : 11,
            "componentType" : 5123,
            "count" : 10572,
            "type" : "SCALAR"
        },
        {
            "bufferView" : 12,
            "componentType" : 5126,
            "count" : 6141,
            "max" : [
                0.08764442056417465,
                0.004999999888241291,
                -0.15880775451660156
            ],
            "min" : [
                0.0564211942255497,
                -0.004999999888241291,
                -0.21334412693977356
            ],
            "type" : "VEC3"
        },
        {
            "bufferView" : 13,
            "componentType" : 5126,
            "count" : 6141,
            "type" : "VEC3"
        },
        {
            "bufferView" : 14,
            "componentType" : 5126,
            "count" : 6141,
            "type" : "VEC2"
        },
        {
            "bufferView" : 15,
            "componentType" : 5123,
            "count" : 27060,
            "type" : "SCALAR"
        },
        {
            "bufferView" : 16,
            "componentType" : 5126,
            "count" : 2390,
            "max" : [
                0.10566603392362595,
                0.004999999888241291,
                -0.1588359773159027
            ],
            "min" : [
                0.09169969707727432,
                -0.004999999888241291,
                -0.21334412693977356
            ],
            "type" : "VEC3"
        },
        {
            "bufferView" : 17,
            "componentType" : 5126,
            "count" : 2390,
            "type" : "VEC3"
        },
        {
            "bufferView" : 18,
            "componentType" : 5126,
            "count" : 2390,
            "type" : "VEC2"
        },
        {
            "bufferView" : 19,
            "componentType" : 5123,
            "count" : 10572,
            "type" : "SCALAR"
        },
        {
            "bufferView" : 20,
            "componentType" : 5126,
            "count" : 4238,
            "max" : [
                0.1393287479877472,
                0.004999999888241291,
                -0.15883243083953857
            ],
            "min" : [
                0.1080406978726387,
                -0.004999999888241291,
                -0.21308419108390808
            ],
            "type" : "VEC3"
        },
        {
            "bufferView" : 21,
            "componentType" : 5126,
            "count" : 4238,
            "type" : "VEC3"
        },
        {
            "bufferView" : 22,
            "componentType" : 5126,
            "count" : 4238,
            "type" : "VEC2"
        },
        {
            "bufferView" : 23,
            "componentType" : 5123,
            "count" : 18780,
            "type" : "SCALAR"
        },
        {
            "bufferView" : 24,
            "componentType" : 5126,
            "count" : 4604,
            "max" : [
                0.1730583906173706,
                0.004999999888241291,
                -0.158306285738945
            ],
            "min" : [
                0.14168226718902588,
                -0.004999999888241291,
                -0.21387739479541779
            ],
            "type" : "VEC3"
        },
        {
            "bufferView" : 25,
            "componentType" : 5126,
            "count" : 4604,
            "type" : "VEC3"
        },
        {
            "bufferView" : 26,
            "componentType" : 5126,
            "count" : 4604,
            "type" : "VEC2"
        },
        {
            "bufferView" : 27,
            "componentType" : 5123,
            "count" : 20004,
            "type" : "SCALAR"
        },
        {
            "bufferView" : 28,
            "componentType" : 5126,
            "count" : 2823,
            "max" : [
                0.20661529898643494,
                0.004999999888241291,
                -0.1588359773159027
            ],
            "min" : [
                0.1752391755580902,
                -0.004999999888241291,
                -0.21334412693977356
            ],
            "type" : "VEC3"
        },
        {
            "bufferView" : 29,
            "componentType" : 5126,
            "count" : 2823,
            "type" : "VEC3"
        },
        {
            "bufferView" : 30,
            "componentType" : 5126,
            "count" : 2823,
            "type" : "VEC2"
        },
        {
            "bufferView" : 31,
            "componentType" : 5123,
            "count" : 12456,
            "type" : "SCALAR"
        },
        {
            "bufferView" : 32,
            "componentType" : 5126,
            "count" : 4691,
            "max" : [
                0.23991820216178894,
                0.004999999888241291,
                -0.15886420011520386
            ],
            "min" : [
                0.2088243067264557,
                -0.004999999888241291,
                -0.2133723497390747
            ],
            "type" : "VEC3"
        },
        {
            "bufferView" : 33,
            "componentType" : 5126,
            "count" : 4691,
            "type" : "VEC3"
        },
        {
            "bufferView" : 34,
            "componentType" : 5126,
            "count" : 4691,
            "type" : "VEC2"
        },
        {
            "bufferView" : 35,
            "componentType" : 5123,
            "count" : 20868,
            "type" : "SCALAR"
        },
        {
            "bufferView" : 36,
            "componentType" : 5126,
            "count" : 3317,
            "max" : [
                0.2743854224681854,
                0.004999999888241291,
                -0.15878044068813324
            ],
            "min" : [
                0.24074150621891022,
                -0.004999999888241291,
                -0.21340057253837585
            ],
            "type" : "VEC3"
        },
        {
            "bufferView" : 37,
            "componentType" : 5126,
            "count" : 3317,
            "type" : "VEC3"
        },
        {
            "bufferView" : 38,
            "componentType" : 5126,
            "count" : 3317,
            "type" : "VEC2"
        },
        {
            "bufferView" : 39,
            "componentType" : 5123,
            "count" : 14676,
            "type" : "SCALAR"
        }
    ],
    "bufferViews" : [
        {
            "buffer" : 0,
            "byteLength" : 85224,
            "byteOffset" : 0
        },
        {
            "buffer" : 0,
            "byteLength" : 85224,
            "byteOffset" : 85224
        },
        {
            "buffer" : 0,
            "byteLength" : 56816,
            "byteOffset" : 170448
        },
        {
            "buffer" : 0,
            "byteLength" : 62184,
            "byteOffset" : 227264
        },
        {
            "buffer" : 0,
            "byteLength" : 39768,
            "byteOffset" : 289448
        },
        {
            "buffer" : 0,
            "byteLength" : 39768,
            "byteOffset" : 329216
        },
        {
            "buffer" : 0,
            "byteLength" : 26512,
            "byteOffset" : 368984
        },
        {
            "buffer" : 0,
            "byteLength" : 29352,
            "byteOffset" : 395496
        },
        {
            "buffer" : 0,
            "byteLength" : 28584,
            "byteOffset" : 424848
        },
        {
            "buffer" : 0,
            "byteLength" : 28584,
            "byteOffset" : 453432
        },
        {
            "buffer" : 0,
            "byteLength" : 19056,
            "byteOffset" : 482016
        },
        {
            "buffer" : 0,
            "byteLength" : 21144,
            "byteOffset" : 501072
        },
        {
            "buffer" : 0,
            "byteLength" : 73692,
            "byteOffset" : 522216
        },
        {
            "buffer" : 0,
            "byteLength" : 73692,
            "byteOffset" : 595908
        },
        {
            "buffer" : 0,
            "byteLength" : 49128,
            "byteOffset" : 669600
        },
        {
            "buffer" : 0,
            "byteLength" : 54120,
            "byteOffset" : 718728
        },
        {
            "buffer" : 0,
            "byteLength" : 28680,
            "byteOffset" : 772848
        },
        {
            "buffer" : 0,
            "byteLength" : 28680,
            "byteOffset" : 801528
        },
        {
            "buffer" : 0,
            "byteLength" : 19120,
            "byteOffset" : 830208
        },
        {
            "buffer" : 0,
            "byteLength" : 21144,
            "byteOffset" : 849328
        },
        {
            "buffer" : 0,
            "byteLength" : 50856,
            "byteOffset" : 870472
        },
        {
            "buffer" : 0,
            "byteLength" : 50856,
            "byteOffset" : 921328
        },
        {
            "buffer" : 0,
            "byteLength" : 33904,
            "byteOffset" : 972184
        },
        {
            "buffer" : 0,
            "byteLength" : 37560,
            "byteOffset" : 1006088
        },
        {
            "buffer" : 0,
            "byteLength" : 55248,
            "byteOffset" : 1043648
        },
        {
            "buffer" : 0,
            "byteLength" : 55248,
            "byteOffset" : 1098896
        },
        {
            "buffer" : 0,
            "byteLength" : 36832,
            "byteOffset" : 1154144
        },
        {
            "buffer" : 0,
            "byteLength" : 40008,
            "byteOffset" : 1190976
        },
        {
            "buffer" : 0,
            "byteLength" : 33876,
            "byteOffset" : 1230984
        },
        {
            "buffer" : 0,
            "byteLength" : 33876,
            "byteOffset" : 1264860
        },
        {
            "buffer" : 0,
            "byteLength" : 22584,
            "byteOffset" : 1298736
        },
        {
            "buffer" : 0,
            "byteLength" : 24912,
            "byteOffset" : 1321320
        },
        {
            "buffer" : 0,
            "byteLength" : 56292,
            "byteOffset" : 1346232
        },
        {
            "buffer" : 0,
            "byteLength" : 56292,
            "byteOffset" : 1402524
        },
        {
            "buffer" : 0,
            "byteLength" : 37528,
            "byteOffset" : 1458816
        },
        {
            "buffer" : 0,
            "byteLength" : 41736,
            "byteOffset" : 1496344
        },
        {
            "buffer" : 0,
            "byteLength" : 39804,
            "byteOffset" : 1538080
        },
        {
            "buffer" : 0,
            "byteLength" : 39804,
            "byteOffset" : 1577884
        },
        {
            "buffer" : 0,
            "byteLength" : 26536,
            "byteOffset" : 1617688
        },
        {
            "buffer" : 0,
            "byteLength" : 29352,
            "byteOffset" : 1644224
        }
    ],
    "buffers" : [
        {
            "byteLength" : 1673576,
            "uri" : "vikingdev.bin"
        }
    ]
}
